Normalized EMG Linear Envelopes
nRows=177
nColumns=4

endheader
time	 med_gas_r	  soleus_r	 tib_ant_r	
3.93725	  0.080939	  0.110008	  0.008628	
3.99974	  0.083484	  0.128432	  0.008732	
4.06224	  0.084374	  0.141566	  0.008792	
4.12474	  0.083891	  0.147789	  0.008862	
4.18723	  0.083544	  0.148567	  0.009008	
4.24973	  0.085143	  0.146485	  0.009236	
4.31222	  0.090489	  0.143916	  0.009512	
4.37472	  0.100206	  0.142374	  0.009765	
4.43722	  0.111081	  0.142264	  0.009931	
4.49971	  0.116278	  0.142750	  0.010016	
4.56221	  0.111818	  0.143071	  0.010046	
4.6247	  0.101315	  0.143577	  0.009985	
4.6872	  0.091565	  0.144979	  0.009826	
4.7497	  0.085756	  0.146702	  0.009656	
4.81219	  0.083253	  0.146961	  0.009541	
4.87469	  0.083388	  0.145909	  0.009480	
4.93718	  0.086037	  0.145456	  0.009446	
4.99968	  0.090082	  0.146018	  0.009400	
5.06218	  0.093845	  0.147397	  0.009334	
5.12467	  0.096418	  0.150229	  0.009264	
5.18717	  0.098250	  0.154199	  0.009155	
5.24966	  0.100477	  0.157056	  0.009002	
5.31216	  0.103459	  0.156964	  0.008877	
5.37466	  0.105962	  0.154678	  0.008777	
5.43715	  0.105811	  0.152466	  0.008622	
5.49965	  0.101959	  0.152829	  0.008444	
5.56214	  0.096052	  0.157672	  0.008457	
5.62464	  0.092007	  0.166284	  0.009126	
5.68714	  0.094092	  0.175674	  0.011244	
5.74963	  0.103952	  0.184503	  0.015778	
5.81213	  0.118720	  0.195066	  0.023484	
5.87462	  0.133237	  0.209281	  0.033625	
5.93712	  0.143855	  0.224366	  0.042445	
5.99962	  0.149543	  0.237423	  0.045773	
6.06211	  0.151570	  0.252736	  0.044823	
6.12461	  0.152821	  0.277757	  0.045453	
6.1871	  0.155563	  0.314154	  0.050811	
6.2496	  0.159924	  0.356816	  0.059575	
6.3121	  0.165654	  0.397247	  0.070354	
6.37459	  0.174688	  0.427107	  0.082816	
6.43709	  0.190091	  0.442734	  0.097782	
6.49958	  0.211352	  0.448096	  0.119606	
6.56208	  0.233494	  0.453158	  0.153326	
6.62458	  0.254451	  0.467114	  0.197382	
6.68707	  0.278755	  0.491962	  0.242206	
6.74957	  0.308231	  0.523456	  0.277954	
6.81206	  0.334730	  0.556094	  0.305782	
6.87456	  0.349216	  0.585120	  0.337543	
6.93706	  0.355443	  0.608268	  0.377814	
6.99955	  0.367104	  0.627787	  0.413705	
7.06205	  0.390435	  0.646252	  0.431980	
7.12454	  0.418665	  0.662791	  0.437962	
7.18704	  0.444007	  0.677800	  0.447597	
7.24954	  0.462921	  0.695098	  0.466733	
7.31203	  0.471488	  0.715771	  0.486215	
7.37453	  0.468888	  0.736288	  0.493290	
7.43702	  0.461957	  0.754812	  0.484857	
7.49952	  0.457350	  0.774271	  0.475093	
7.56202	  0.456034	  0.798186	  0.486979	
7.62451	  0.456186	  0.822154	  0.529218	
7.68701	  0.451438	  0.829265	  0.584884	
7.7495	  0.436315	  0.805620	  0.626287	
7.812	  0.418832	  0.760077	  0.638203	
7.8745	  0.408261	  0.713832	  0.624606	
7.93699	  0.401533	  0.679740	  0.600186	
7.99949	  0.399922	  0.664365	  0.582416	
8.06198	  0.407560	  0.671245	  0.584617	
8.12448	  0.412846	  0.690856	  0.610006	
8.18698	  0.408257	  0.702373	  0.653368	
8.24947	  0.403134	  0.690566	  0.704434	
8.31197	  0.399124	  0.657063	  0.745386	
8.37446	  0.392952	  0.619162	  0.753931	
8.43696	  0.392513	  0.598680	  0.721486	
8.49946	  0.398027	  0.607814	  0.664526	
8.56195	  0.393890	  0.643269	  0.610082	
8.62445	  0.373122	  0.688023	  0.576547	
8.68694	  0.349690	  0.716861	  0.567785	
8.74944	  0.344552	  0.713217	  0.572040	
8.81194	  0.361902	  0.687208	  0.568627	
8.87443	  0.384247	  0.668298	  0.546953	
8.93693	  0.401597	  0.680294	  0.518593	
8.99942	  0.424493	  0.724422	  0.507708	
9.06192	  0.454862	  0.776836	  0.527520	
9.12442	  0.476516	  0.806518	  0.566627	
9.18691	  0.482259	  0.802878	  0.604359	
9.24941	  0.480727	  0.778711	  0.633345	
9.3119	  0.477817	  0.750077	  0.654271	
9.3744	  0.474452	  0.724291	  0.659179	
9.4369	  0.474022	  0.702621	  0.640242	
9.49939	  0.477093	  0.687733	  0.610346	
9.56189	  0.482055	  0.687218	  0.596601	
9.62438	  0.490464	  0.704545	  0.611802	
9.68688	  0.500286	  0.728832	  0.643492	
9.74938	  0.506140	  0.745924	  0.671660	
9.81187	  0.505315	  0.755458	  0.686514	
9.87437	  0.497864	  0.762311	  0.688797	
9.93686	  0.490331	  0.760983	  0.686561	
9.99936	  0.489212	  0.746365	  0.693352	
10.0619	  0.490179	  0.728428	  0.717362	
10.1244	  0.485192	  0.719291	  0.752340	
10.1868	  0.468375	  0.717880	  0.782787	
10.2493	  0.440927	  0.719476	  0.794450	
10.3118	  0.416149	  0.725720	  0.783806	
10.3743	  0.399334	  0.734688	  0.759955	
10.4368	  0.379575	  0.734602	  0.734347	
10.4993	  0.360815	  0.718968	  0.712539	
10.5618	  0.367557	  0.698814	  0.697101	
10.6243	  0.408259	  0.691122	  0.692478	
10.6868	  0.462049	  0.703747	  0.704067	
10.7493	  0.505021	  0.731666	  0.732630	
10.8118	  0.529535	  0.756277	  0.768582	
10.8743	  0.536748	  0.756527	  0.793045	
10.9368	  0.530423	  0.731268	  0.789105	
10.9993	  0.518911	  0.700584	  0.755204	
11.0618	  0.501623	  0.682933	  0.708465	
11.1243	  0.460226	  0.679959	  0.671932	
11.1868	  0.382613	  0.677515	  0.654576	
11.2493	  0.283467	  0.652490	  0.645312	
11.3118	  0.191602	  0.586913	  0.625473	
11.3743	  0.129542	  0.486593	  0.585114	
11.4368	  0.104548	  0.382238	  0.533126	
11.4993	  0.106635	  0.304160	  0.491097	
11.5618	  0.115976	  0.260635	  0.471962	
11.6243	  0.118497	  0.243294	  0.471493	
11.6868	  0.113413	  0.240010	  0.481144	
11.7492	  0.106796	  0.238739	  0.492969	
11.8117	  0.103152	  0.231094	  0.491038	
11.8742	  0.102926	  0.216392	  0.457977	
11.9367	  0.103996	  0.199769	  0.395227	
11.9992	  0.103810	  0.187337	  0.322788	
12.0617	  0.100672	  0.182714	  0.258905	
12.1242	  0.094918	  0.186282	  0.210295	
12.1867	  0.088906	  0.196094	  0.175473	
12.2492	  0.084331	  0.207069	  0.149366	
12.3117	  0.081004	  0.211445	  0.129169	
12.3742	  0.078904	  0.205390	  0.115967	
12.4367	  0.078406	  0.194239	  0.110007	
12.4992	  0.078310	  0.187187	  0.108849	
12.5617	  0.076438	  0.187633	  0.108845	
12.6242	  0.072455	  0.190779	  0.106543	
12.6867	  0.068662	  0.189950	  0.101299	
12.7492	  0.067787	  0.183520	  0.095318	
12.8117	  0.070681	  0.175316	  0.089819	
12.8742	  0.076444	  0.170062	  0.083736	
12.9367	  0.083367	  0.169711	  0.076291	
12.9992	  0.088611	  0.172637	  0.068436	
13.0617	  0.088874	  0.174795	  0.061129	
13.1242	  0.083506	  0.172899	  0.054200	
13.1867	  0.075560	  0.166819	  0.047639	
13.2492	  0.068847	  0.158140	  0.042169	
13.3116	  0.065544	  0.149343	  0.039131	
13.3741	  0.065918	  0.144575	  0.039936	
13.4366	  0.068499	  0.146622	  0.043632	
13.4991	  0.071130	  0.153862	  0.046616	
13.5616	  0.072386	  0.162559	  0.045551	
13.6241	  0.071894	  0.169867	  0.039326	
13.6866	  0.070389	  0.174261	  0.029913	
13.7491	  0.069401	  0.175005	  0.021308	
13.8116	  0.069606	  0.171977	  0.016017	
13.8741	  0.070020	  0.166345	  0.013656	
13.9366	  0.069515	  0.160612	  0.012731	
13.9991	  0.068251	  0.157158	  0.012229	
14.0616	  0.067315	  0.157543	  0.011968	
14.1241	  0.067421	  0.161860	  0.012208	
14.1866	  0.068060	  0.166994	  0.012989	
14.2491	  0.068256	  0.168592	  0.013863	
14.3116	  0.068104	  0.165886	  0.014256	
14.3741	  0.068507	  0.161065	  0.013982	
14.4366	  0.069506	  0.155314	  0.013302	
14.4991	  0.070395	  0.148778	  0.012548	
14.5616	  0.071133	  0.142306	  0.011889	
14.6241	  0.072040	  0.137380	  0.011384	
14.6866	  0.072603	  0.135085	  0.011089	
14.7491	  0.071688	  0.135520	  0.011054	
14.8116	  0.068469	  0.138354	  0.011213	
14.874	  0.062921	  0.142977	  0.011411	
14.9365	  0.055904	  0.148323	  0.011556	
